<svg width="14" height="15" viewBox="0 0 14 15" fill="none" xmlns="http://www.w3.org/2000/svg">
<path d="M11.7512 5.44358L8.4653 4.96603L6.99643 1.98818C6.95631 1.90665 6.89031 1.84064 6.80878 1.80052C6.6043 1.69958 6.35582 1.7837 6.25359 1.98818L4.78472 4.96603L1.49885 5.44358C1.40826 5.45652 1.32543 5.49923 1.26202 5.56393C1.18536 5.64273 1.14311 5.74874 1.14457 5.85867C1.14602 5.9686 1.19106 6.07345 1.26979 6.15019L3.64715 8.46802L3.08549 11.7409C3.07232 11.8171 3.08074 11.8954 3.10981 11.967C3.13887 12.0386 3.18742 12.1006 3.24994 12.146C3.31245 12.1914 3.38644 12.2184 3.46351 12.2239C3.54058 12.2294 3.61765 12.2132 3.68598 12.1771L6.62501 10.6319L9.56404 12.1771C9.64428 12.2198 9.73746 12.234 9.82676 12.2185C10.0519 12.1797 10.2034 11.9661 10.1645 11.7409L9.60287 8.46802L11.9802 6.15019C12.0449 6.08677 12.0876 6.00395 12.1006 5.91336C12.1355 5.68688 11.9776 5.47723 11.7512 5.44358Z" fill="#FFC416"/>
</svg>
